# File created by Blade
# Date/Time:  Tue Sep 30 19:33:40 2014
#---------------------------------------------------------
:version 1.10
:name HOM
:units
  mass 1.0
  length 1.000000
  angle deg
:documentation
     Acclaim Skeleton File
:root
   axis xyz
   order TX TY TZ RX RY RZ
   position 0.000000 0.000000 0.000000
   orientation 0 0 0
:bonedata
   begin
      id 1
      name Spine_dum
      direction 0.000000 1.000000 0.000000
      length 3.241213
      axis 0.0 0.0 0.0 xyz
   end
   begin
      id 2
      name LeftUpLeg_dum
      direction 1.000000 0.000000 0.000000
      length 3.434019
      axis 0.0 0.0 0.0 xyz
   end
   begin
      id 3
      name RightUpLeg_dum
      direction -1.000000 0.000000 0.000000
      length 3.434019
      axis 0.0 0.0 0.0 xyz
   end
   begin
      id 4
      name Spine
      direction 0.000000 1.000000 0.000000
      length 0.000000
      axis 0.0 0.0 0.0 xyz
      dof rx ry rz
   end
   begin
      id 5
      name Spine_dum1
      direction 0.000000 1.000000 0.000000
      length 18.382958
      axis 0.0 0.0 0.0 xyz
   end
   begin
      id 6
      name Spine_dum2
      direction 0.000000 1.000000 0.000000
      length 12.828261
      axis 0.0 0.0 0.0 xyz
   end
   begin
      id 7
      name Spine_dum3
      direction 0.000000 1.000000 0.000000
      length 12.828261
      axis 0.0 0.0 0.0 xyz
   end
   begin
      id 8
      name Head
      direction 0.000000 1.000000 0.000000
      length 4.527550
      axis 0.0 0.0 0.0 xyz
      dof rx ry rz
   end
   begin
      id 9
      name LeftShoulder
      direction 1.000000 0.000000 0.000000
      length 7.748055
      axis 0.0 0.0 -90.0 xyz
      dof rx ry rz
   end
   begin
      id 10
      name LeftArm
      direction 1.000000 0.000000 0.000000
      length 10.635614
      axis 0.0 0.0 -90.0 xyz
      dof rx ry rz
   end
   begin
      id 11
      name LeftForeArm
      direction 1.000000 0.000000 0.000000
      length 8.346755
      axis 0.0 0.0 -90.0 xyz
      dof ry rz rx
   end
   begin
      id 12
      name LeftHand
      direction 0.000000 0.000000 0.000000
      length 0.000000
      axis 0.0 0.0 -90.0 xyz
      dof rx ry rz
   end
   begin
      id 13
      name LeftHand_dum1
      direction 0.000000 0.000000 0.000000
      length 0.000000
      axis 0.0 0.0 -90.0 xyz
   end
   begin
      id 14
      name LeftHand_dum2
      direction 1.000000 0.000000 0.000000
      length 3.937000
      axis 0.0 0.0 -90.0 xyz
   end
   begin
      id 15
      name LeftHandThumb1
      direction 0.000000 0.000000 1.000000
      length 3.937000
      axis 0.0 0.0 -90.0 xyz
      dof rx rz ry
   end
   begin
      id 16
      name RightShoulder
      direction -1.000000 0.000000 0.000000
      length 7.748055
      axis 0.0 0.0 90.0 xyz
      dof rx ry rz
   end
   begin
      id 17
      name RightArm
      direction -1.000000 0.000000 0.000000
      length 10.635614
      axis 0.0 0.0 90.0 xyz
      dof rx ry rz
   end
   begin
      id 18
      name RightForeArm
      direction -1.000000 0.000000 0.000000
      length 8.346755
      axis 0.0 0.0 90.0 xyz
      dof ry rz rx
   end
   begin
      id 19
      name RightHand
      direction 0.000000 0.000000 0.000000
      length 0.000000
      axis 0.0 0.0 90.0 xyz
      dof rx ry rz
   end
   begin
      id 20
      name RightHand_dum1
      direction 0.000000 0.000000 0.000000
      length 0.000000
      axis 0.0 0.0 90.0 xyz
   end
   begin
      id 21
      name RightHand_dum2
      direction -1.000000 0.000000 0.000000
      length 3.937000
      axis 0.0 0.0 90.0 xyz
   end
   begin
      id 22
      name RightHandThumb1
      direction 0.000000 0.000000 1.000000
      length 3.937000
      axis 0.0 0.0 90.0 xyz
      dof rx rz ry
   end
   begin
      id 23
      name LeftUpLeg
      direction 0.000000 -1.000000 0.000000
      length 15.713025
      axis 0.0 0.0 0.0 xyz
      dof rx ry rz
   end
   begin
      id 24
      name LeftLeg
      direction 0.000000 -1.000000 0.000000
      length 14.435119
      axis 0.0 0.0 0.0 xyz
      dof rx ry rz
   end
   begin
      id 25
      name LeftFoot
      direction 0.000000 -0.258819 0.965926
      length 4.938895
      axis 15.0 0.0 0.0 xyz
      dof rx ry rz
   end
   begin
      id 26
      name LeftToeBase
      direction 0.000000 0.000000 1.000000
      length 2.952750
      axis 0.0 0.0 0.0 xyz
      dof rx ry rz
   end
   begin
      id 27
      name RightUpLeg
      direction 0.000000 -1.000000 0.000000
      length 15.713025
      axis 0.0 0.0 0.0 xyz
      dof rx ry rz
   end
   begin
      id 28
      name RightLeg
      direction 0.000000 -1.000000 0.000000
      length 14.435119
      axis 0.0 0.0 0.0 xyz
      dof rx ry rz
   end
   begin
      id 29
      name RightFoot
      direction 0.000000 -0.258819 0.965926
      length 4.938895
      axis 15.0 0.0 0.0 xyz
      dof rx ry rz
   end
   begin
      id 30
      name RightToeBase
      direction 0.000000 0.000000 1.000000
      length 2.952750
      axis 0.0 0.0 0.0 xyz
      dof rx ry rz
   end
:hierarchy
   begin
      root Spine_dum LeftUpLeg_dum RightUpLeg_dum
      Spine_dum Spine
      LeftUpLeg_dum LeftUpLeg
      RightUpLeg_dum RightUpLeg
      Spine Spine_dum1 Spine_dum2 Spine_dum3
      Spine_dum1 Head
      Spine_dum2 LeftShoulder
      Spine_dum3 RightShoulder
      LeftShoulder LeftArm
      LeftArm LeftForeArm
      LeftForeArm LeftHand
      LeftHand LeftHand_dum1 LeftHand_dum2
      LeftHand_dum1 LeftHandThumb1
      RightShoulder RightArm
      RightArm RightForeArm
      RightForeArm RightHand
      RightHand RightHand_dum1 RightHand_dum2
      RightHand_dum1 RightHandThumb1
      LeftUpLeg LeftLeg
      LeftLeg LeftFoot
      LeftFoot LeftToeBase
      RightUpLeg RightLeg
      RightLeg RightFoot
      RightFoot RightToeBase
   end

# File created by Blade
# Date/Time:  Mon Sep 22 21:09:19 2014
# Frame Rate: 120.000 fps
#------------------------------------------------------
:FULLY-SPECIFIED
:DEGREES
1129
root -2.136727 33.273565 -4.033393 -52.800657 54.267662 -78.429056
Spine -29.979455 -12.811099 33.683828
Head 9.543507 -7.858479 1.662252
LeftShoulder 5.300988 32.453642 35.462020
LeftArm 91.925843 26.564109 -44.035848
LeftForeArm -31.384568 -0.000000 74.691324
LeftHand -21.756244 -0.000000 -6.846634
LeftHandThumb1 -26.253704 0.000000 33.147579
RightShoulder -7.662658 -48.618405 -16.569839
RightArm 62.222158 -10.226493 54.026302
RightForeArm 63.684485 -0.000000 85.401906
RightHand 4.297680 -0.000000 19.984827
RightHandThumb1 -24.326973 -0.000000 -32.862282
LeftUpLeg -35.708591 18.008729 26.644784
LeftLeg 33.828477 -0.000000 -0.000000
LeftFoot -18.951636 12.783747 -1.235289
LeftToeBase -2.670715 -0.000000 0.000000
RightUpLeg -164.073723 -27.482913 31.312651
RightLeg 40.686158 -0.000000 -0.000000
RightFoot 40.041984 -20.321743 5.797509
RightToeBase 43.250287 -0.000000 -0.000000
1130
root -2.067651 33.326975 -4.071372 -52.982746 54.199620 -78.687001
Spine -30.108135 -12.821441 34.124205
Head 9.422949 -7.682554 1.341862
LeftShoulder 5.424246 32.338031 35.536065
LeftArm 91.813324 26.561454 -44.299003
LeftForeArm -31.102217 -0.000000 74.828740
LeftHand -21.672265 -0.000000 -6.955601
LeftHandThumb1 -26.253704 0.000000 33.147579
RightShoulder -7.934449 -48.491596 -16.379281
RightArm 62.216384 -10.187878 54.045213
RightForeArm 63.724985 0.000000 85.519342
RightHand 4.143412 -0.000000 19.835763
RightHandThumb1 -24.326973 -0.000000 -32.862282
LeftUpLeg -35.560552 18.132382 26.618033
LeftLeg 33.467234 -0.000000 -0.000000
LeftFoot -18.702238 12.536850 -1.408174
LeftToeBase -2.477471 -0.000000 0.000000
RightUpLeg -164.542490 -28.214213 31.900017
RightLeg 37.999534 -0.000000 -0.000000
RightFoot 39.685637 -20.397710 5.123245
RightToeBase 43.141033 -0.000000 -0.000000
1131
root -2.000008 33.374918 -4.109762 -53.206919 54.230070 -78.894727
Spine -30.205177 -13.207729 34.646395
Head 9.281647 -7.138756 0.996173
LeftShoulder 5.213645 32.392454 35.426427
LeftArm 91.639460 26.559104 -44.554299
LeftForeArm -30.772731 0.000000 75.086743
LeftHand -21.589822 -0.000000 -7.032547
LeftHandThumb1 -26.253704 0.000000 33.147579
RightShoulder -7.721721 -48.206812 -16.583072
RightArm 62.160675 -10.181738 54.041871
RightForeArm 63.783982 0.000000 85.683824
RightHand 4.301284 -0.000000 19.706213
RightHandThumb1 -24.326973 -0.000000 -32.862282
LeftUpLeg -35.391529 18.186542 26.514527
LeftLeg 33.196293 -0.000000 -0.000000
LeftFoot -18.474741 12.235184 -1.679197
LeftToeBase -2.194493 -0.000000 0.000000
RightUpLeg -165.028114 -28.904942 32.405466
RightLeg 35.370035 -0.000000 -0.000000
RightFoot 39.281701 -20.757884 4.769189
RightToeBase 42.896244 -0.000000 -0.000000
1132
root -1.924310 33.417666 -4.146443 -53.337351 54.333836 -78.939535
Spine -30.244606 -13.470909 34.962346
Head 9.122752 -6.756099 0.686480
LeftShoulder 5.176379 32.369032 35.407484
LeftArm 91.478458 26.511362 -44.739045
LeftForeArm -30.507400 0.000000 75.415408
LeftHand -21.547915 -0.000000 -7.091549
LeftHandThumb1 -26.253704 0.000000 33.147579
RightShoulder -7.784066 -48.022588 -16.612002
RightArm 62.158414 -10.182255 54.077193
RightForeArm 63.737495 0.000000 85.830916
RightHand 4.376809 -0.000000 19.725721
RightHandThumb1 -24.326973 -0.000000 -32.862282
LeftUpLeg -35.184476 18.322034 26.280565
LeftLeg 33.003482 -0.000000 -0.000000
LeftFoot -18.320083 11.898193 -2.003243
LeftToeBase -1.804609 -0.000000 0.000000
RightUpLeg -165.567007 -29.427431 32.844033
RightLeg 32.821302 -0.000000 -0.000000
RightFoot 38.856467 -20.921493 4.206493
RightToeBase 42.575746 -0.000000 -0.000000
1133
root -1.852784 33.452981 -4.182290 -53.725571 54.438732 -78.877447
Spine -29.876308 -13.940718 35.142474
Head 8.848325 -6.359051 0.509955
LeftShoulder 5.083462 32.337479 35.352277
LeftArm 91.338280 26.431678 -44.903513
LeftForeArm -30.324665 -0.000000 75.718846
LeftHand -21.413590 -0.000000 -7.216606
LeftHandThumb1 -26.253704 0.000000 33.147579
RightShoulder -7.725385 -47.656353 -16.666709
RightArm 61.955285 -10.197754 54.140707
RightForeArm 63.670397 -0.000000 86.058048
RightHand 4.515771 -0.000000 19.705025
RightHandThumb1 -24.326973 -0.000000 -32.862282
LeftUpLeg -34.681878 18.358037 26.133830
LeftLeg 32.881334 -0.000000 -0.000000
LeftFoot -18.293756 11.375384 -2.547629
LeftToeBase -1.300210 -0.000000 0.000000
RightUpLeg -165.805990 -29.828227 33.163398
RightLeg 30.304582 -0.000000 -0.000000
RightFoot 38.337966 -21.009822 3.763302
RightToeBase 42.346721 -0.000000 -0.000000
1134
root -1.781333 33.487394 -4.219095 -53.770959 54.604637 -78.597682
Spine -29.603024 -14.116585 35.095858
Head 8.608199 -6.189120 0.424020
LeftShoulder 5.178442 32.231212 35.400937
LeftArm 91.272019 26.359818 -44.974222
LeftForeArm -30.002827 -0.000000 76.059184
LeftHand -21.361894 -0.000000 -7.244156
LeftHandThumb1 -26.253704 0.000000 33.147579
RightShoulder -8.033122 -47.607252 -16.384147
RightArm 61.925043 -10.050247 54.099445
RightForeArm 63.565390 -0.000000 86.364993
RightHand 4.524637 -0.000000 19.621686
RightHandThumb1 -24.326973 -0.000000 -32.862282
LeftUpLeg -34.313625 18.523019 25.843242
LeftLeg 32.846645 -0.000000 -0.000000
LeftFoot -18.147980 10.906163 -2.899603
LeftToeBase -1.170659 -0.000000 0.000000
RightUpLeg -166.168773 -29.927395 33.408371
RightLeg 27.817329 -0.000000 -0.000000
RightFoot 37.838472 -21.163906 3.347131
RightToeBase 42.024663 -0.000000 -0.000000
1135
root -1.718742 33.516514 -4.255301 -53.631271 54.850360 -78.281671
Spine -29.474444 -14.335133 35.057077
Head 8.299379 -5.876326 0.363341
LeftShoulder 5.073393 32.189991 35.368164
LeftArm 91.268066 26.340872 -44.982813
LeftForeArm -29.531060 -0.000000 76.447163
LeftHand -21.439309 -0.000000 -7.058661
LeftHandThumb1 -26.253704 0.000000 33.147579
RightShoulder -8.180891 -47.558421 -16.285204
RightArm 61.920917 -9.953433 54.104916
RightForeArm 63.417757 -0.000000 86.693955
RightHand 4.546058 0.000000 19.667221
RightHandThumb1 -24.326973 -0.000000 -32.862282
LeftUpLeg -34.154134 18.658309 25.486681
LeftLeg 32.869935 -0.000000 -0.000000
LeftFoot -18.067961 10.253345 -3.665669
LeftToeBase -0.968533 -0.000000 0.000000
RightUpLeg -166.681039 -29.864115 33.652975
RightLeg 25.359052 -0.000000 -0.000000
RightFoot 37.405649 -21.054700 2.851893
RightToeBase 41.628154 -0.000000 -0.000000
1136
root -1.658462 33.541622 -4.290280 -53.475876 55.117111 -77.877896
Spine -29.289271 -14.604864 34.977843
Head 8.032725 -5.518712 0.253066
LeftShoulder 4.943917 32.174682 35.268456
LeftArm 91.175243 26.311071 -45.001660
LeftForeArm -29.326597 0.000000 76.904597
LeftHand -21.541940 -0.000000 -6.757514
LeftHandThumb1 -26.253704 0.000000 33.147579
RightShoulder -8.266388 -47.601917 -16.222384
RightArm 62.005611 -9.805588 54.103521
RightForeArm 63.273297 -0.000000 87.036684
RightHand 4.639500 0.000000 19.612361
RightHandThumb1 -24.326973 -0.000000 -32.862282
LeftUpLeg -33.948599 18.769156 25.150177
LeftLeg 33.006816 -0.000000 -0.000000
LeftFoot -17.986490 9.441091 -4.473531
LeftToeBase -0.762505 -0.000000 0.000000
RightUpLeg -167.174391 -29.659183 33.832690
RightLeg 23.085948 -0.000000 -0.000000
RightFoot 37.042093 -20.856396 2.299048
RightToeBase 41.097018 -0.000000 -0.000000
